<svg width="26" height="26" viewBox="0 0 26 26" fill="none" xmlns="http://www.w3.org/2000/svg">
<path fill-rule="evenodd" clip-rule="evenodd" d="M4 0H22C24.2091 0 26 1.79086 26 4V22C26 24.2091 24.2091 26 22 26H4C1.79086 26 0 24.2091 0 22V4C0 1.79086 1.79086 0 4 0ZM8.73438 5.89087C8.73438 6.93158 9.58453 7.78174 10.6252 7.78174H12.5161V5.89087C12.5161 4.85016 11.666 4 10.6252 4C9.58453 4 8.73438 4.85016 8.73438 5.89087ZM7.78174 15.3752C7.78174 16.416 6.93158 17.2661 5.89087 17.2661C4.85016 17.2661 4 16.416 4 15.3752C4 14.3345 4.85016 13.4844 5.89087 13.4844H7.78174V15.3752ZM8.73438 15.3752C8.73438 14.3345 9.58453 13.4844 10.6252 13.4844C11.666 13.4844 12.5161 14.3345 12.5161 15.3752V20.1097C12.5161 21.1505 11.666 22.0006 10.6252 22.0006C9.58453 22.0006 8.73438 21.1505 8.73438 20.1097V15.3752ZM10.6254 8.73438C11.6661 8.73438 12.5162 9.58453 12.5162 10.6252C12.5162 11.666 11.6661 12.5161 10.6254 12.5161H5.89087C4.85016 12.5161 4 11.666 4 10.6252C4 9.58453 4.85016 8.73438 5.89087 8.73438H10.6254ZM20.1077 8.73438C19.067 8.73438 18.2168 9.58453 18.2168 10.6252V12.5161H20.1077C21.1484 12.5161 21.9985 11.666 21.9985 10.6252C21.9985 9.58453 21.1484 8.73438 20.1077 8.73438ZM17.2642 10.6254C17.2642 11.6661 16.414 12.5162 15.3733 12.5162C14.3326 12.5162 13.4824 11.6661 13.4824 10.6254V5.89087C13.4824 4.85016 14.3326 4 15.3733 4C16.414 4 17.2642 4.85016 17.2642 5.89087V10.6254ZM17.2642 20.1096C17.2642 19.0689 16.414 18.2188 15.3733 18.2188H13.4824V20.1096C13.4824 21.1503 14.3326 22.0005 15.3733 22.0005C16.414 22.0005 17.2642 21.1503 17.2642 20.1096ZM15.3733 17.2661C14.3326 17.2661 13.4824 16.416 13.4824 15.3752C13.4824 14.3345 14.3326 13.4844 15.3733 13.4844H20.1078C21.1485 13.4844 21.9987 14.3345 21.9987 15.3752C21.9987 16.416 21.1485 17.2661 20.1078 17.2661H15.3733Z" fill="white"/>
</svg>
